<svg xmlns="http://www.w3.org/2000/svg" viewBox="0 0 100 100">
  <rect width="100" height="100" rx="22" fill="#111111"/>
  <g fill="none" stroke="#FAF8F1" stroke-linecap="round">
    <path d="M50 16a34 34 0 0 1 29 17" stroke-width="4" opacity=".3"/>
    <path d="M83 50a34 34 0 0 1-17 29" stroke-width="4" opacity=".78"/>
    <path d="M50 84a34 34 0 0 1-29-17" stroke-width="4" opacity=".42"/>
    <path d="M17 50a34 34 0 0 1 17-29" stroke-width="4" opacity=".78"/>
    <path d="M32 37c10 5 17 12 23 24" stroke-width="3" opacity=".55"/>
    <path d="M66 34c-6 9-8 18-7 27" stroke-width="3" opacity=".45"/>
    <path d="M35 68c8-4 15-5 24-7" stroke-width="3"/>
  </g>
  <circle cx="32" cy="37" r="5.5" fill="#FAF8F1"/>
  <circle cx="66" cy="34" r="5" fill="#C6F36A"/>
  <circle cx="35" cy="68" r="4.5" fill="#FAF8F1" opacity=".62"/>
  <circle cx="59" cy="61" r="8.5" fill="#FAF8F1"/>
</svg>
